<svg width="31" height="30" viewBox="0 0 31 30" fill="none" xmlns="http://www.w3.org/2000/svg">
<g clip-path="url(#clip0_6_69)">
<path d="M31 15.0918C31 6.75555 24.0599 -0.00195312 15.5 -0.00195312C6.93625 -7.81248e-05 -0.00387573 6.75555 -0.00387573 15.0937C-0.00387573 22.6255 5.66525 28.8693 13.0742 30.0018V19.4549H9.14112V15.0937H13.0781V11.7655C13.0781 7.98367 15.3934 5.89492 18.9333 5.89492C20.6305 5.89492 22.4033 6.1893 22.4033 6.1893V9.9018H20.4484C18.5244 9.9018 17.9238 11.0662 17.9238 12.2605V15.0918H22.2212L21.5353 19.453H17.9219V29.9999C25.3309 28.8674 31 22.6237 31 15.0918Z" fill="white"/>
</g>
<defs>
<clipPath id="clip0_6_69">
<rect width="31" height="30" fill="white"/>
</clipPath>
</defs>
</svg>
