<svg width="31" height="30" viewBox="0 0 31 30" fill="none" xmlns="http://www.w3.org/2000/svg">
<path d="M15.5 0C6.93625 0 0 6.88228 0 15.3794C0 22.1848 4.43687 27.9328 10.5981 29.9706C11.3731 30.1052 11.6637 29.6438 11.6637 29.2401C11.6637 28.8748 11.6444 27.6637 11.6444 26.3757C7.75 27.087 6.7425 25.4337 6.4325 24.5686C6.25812 24.1264 5.5025 22.7615 4.84375 22.3963C4.30125 22.1079 3.52625 21.3966 4.82438 21.3774C6.045 21.3582 6.91687 22.4924 7.2075 22.9538C8.6025 25.2799 10.8306 24.6263 11.7219 24.2226C11.8575 23.2229 12.2644 22.5501 12.71 22.1656C9.26125 21.7811 5.6575 20.4546 5.6575 14.572C5.6575 12.8995 6.25812 11.5153 7.24625 10.4388C7.09125 10.0543 6.54875 8.4779 7.40125 6.36323C7.40125 6.36323 8.69938 5.95952 11.6637 7.93962C12.9037 7.59358 14.2213 7.42056 15.5388 7.42056C16.8563 7.42056 18.1738 7.59358 19.4138 7.93962C22.3781 5.9403 23.6763 6.36323 23.6763 6.36323C24.5288 8.4779 23.9862 10.0543 23.8313 10.4388C24.8194 11.5153 25.42 12.8803 25.42 14.572C25.42 20.4738 21.7969 21.7811 18.3481 22.1656C18.91 22.6462 19.3944 23.5689 19.3944 25.0108C19.3944 27.0678 19.375 28.721 19.375 29.2401C19.375 29.6438 19.6656 30.1244 20.4406 29.9706C23.5178 28.9402 26.1918 26.9781 28.086 24.3605C29.9803 21.743 30.9995 18.6019 31 15.3794C31 6.88228 24.0637 0 15.5 0Z" fill="white"/>
</svg>
