<svg width="54" height="40" viewBox="0 0 54 40" fill="none" xmlns="http://www.w3.org/2000/svg">
<path d="M13.3333 18.6667V21.3333H40V18.6667C40 16.5482 40.8403 14.5162 42.3365 13.0164C43.8328 11.5166 45.8628 10.6716 47.9813 10.6667C47.9785 9.96928 47.916 9.27342 47.7947 8.58667C47.3832 6.51735 46.3672 4.61655 44.8753 3.12467C43.3835 1.63279 41.4827 0.616846 39.4133 0.205334C38.384 3.77496e-07 37.1467 0 34.6667 0H18.6667C16.1867 0 14.9493 3.77496e-07 13.92 0.205334C11.8507 0.616846 9.94989 1.63279 8.45801 3.12467C6.96613 4.61655 5.95018 6.51735 5.53867 8.58667C5.41728 9.27341 5.35483 9.96928 5.35201 10.6667C7.4705 10.6716 9.50054 11.5166 10.9968 13.0164C12.4931 14.5162 13.3333 16.5482 13.3333 18.6667Z" fill="white"/>
<path d="M43.8507 34.6666H9.48267C8.75923 34.6668 8.03813 34.5845 7.33334 34.4213V37.3333C7.33334 37.8637 7.12263 38.3725 6.74755 38.7475C6.37248 39.1226 5.86377 39.3333 5.33334 39.3333C4.80291 39.3333 4.2942 39.1226 3.91913 38.7475C3.54405 38.3725 3.33334 37.8637 3.33334 37.3333V32.4026C2.28722 31.5133 1.44719 30.407 0.87157 29.1605C0.295955 27.9139 -0.00144957 26.557 5.31222e-06 25.184V18.6666C5.31222e-06 17.2522 0.561908 15.8956 1.5621 14.8954C2.5623 13.8952 3.91885 13.3333 5.33334 13.3333C6.74783 13.3333 8.10438 13.8952 9.10458 14.8954C10.1048 15.8956 10.6667 17.2522 10.6667 18.6666V21.8666C10.6667 22.4324 10.8914 22.9751 11.2915 23.3751C11.6916 23.7752 12.2342 24 12.8 24H40.5333C41.0991 24 41.6418 23.7752 42.0418 23.3751C42.4419 22.9751 42.6667 22.4324 42.6667 21.8666V18.6666C42.6667 17.2522 43.2286 15.8956 44.2288 14.8954C45.229 13.8952 46.5855 13.3333 48 13.3333C49.4145 13.3333 50.771 13.8952 51.7712 14.8954C52.7714 15.8956 53.3333 17.2522 53.3333 18.6666V25.184C53.3348 26.557 53.0374 27.9139 52.4618 29.1605C51.8862 30.407 51.0461 31.5133 50 32.4026V37.3333C50 37.8637 49.7893 38.3725 49.4142 38.7475C49.0391 39.1226 48.5304 39.3333 48 39.3333C47.4696 39.3333 46.9609 39.1226 46.5858 38.7475C46.2107 38.3725 46 37.8637 46 37.3333V34.4213C45.2952 34.5845 44.5741 34.6668 43.8507 34.6666Z" fill="white"/>
</svg>
