<svg width="36" height="35" viewBox="0 0 36 35" fill="none" xmlns="http://www.w3.org/2000/svg">
<path d="M28.5 4.375C29.2956 4.375 30.0587 4.68229 30.6213 5.22927C31.1839 5.77625 31.5 6.51812 31.5 7.29167V27.7083C31.5 28.4819 31.1839 29.2237 30.6213 29.7707C30.0587 30.3177 29.2956 30.625 28.5 30.625H7.5C6.70435 30.625 5.94129 30.3177 5.37868 29.7707C4.81607 29.2237 4.5 28.4819 4.5 27.7083V7.29167C4.5 6.51812 4.81607 5.77625 5.37868 5.22927C5.94129 4.68229 6.70435 4.375 7.5 4.375H28.5ZM27.75 26.9792V19.25C27.75 17.9891 27.2348 16.7799 26.3178 15.8883C25.4007 14.9967 24.1569 14.4958 22.86 14.4958C21.585 14.4958 20.1 15.2542 19.38 16.3917V14.7729H15.195V26.9792H19.38V19.7896C19.38 18.6667 20.31 17.7479 21.465 17.7479C22.022 17.7479 22.5561 17.963 22.9499 18.3459C23.3438 18.7288 23.565 19.2481 23.565 19.7896V26.9792H27.75ZM10.32 12.4833C10.9883 12.4833 11.6293 12.2252 12.1019 11.7657C12.5745 11.3063 12.84 10.6831 12.84 10.0333C12.84 8.67708 11.715 7.56875 10.32 7.56875C9.64768 7.56875 9.00289 7.82841 8.52748 8.29061C8.05208 8.75281 7.785 9.37969 7.785 10.0333C7.785 11.3896 8.925 12.4833 10.32 12.4833ZM12.405 26.9792V14.7729H8.25V26.9792H12.405Z" fill="white"/>
</svg>
